<mxfile host="app.diagrams.net" agent="Mozilla/5.0 (Windows NT 10.0; Win64; x64) AppleWebKit/537.36 (KHTML, like Gecko) Chrome/136.0.0.0 Safari/537.36" version="27.0.2">
  <diagram name="Page-1" id="RBSc8KqUJe3WpE-rTETB">
    <mxGraphModel dx="831" dy="500" grid="1" gridSize="10" guides="1" tooltips="1" connect="1" arrows="1" fold="1" page="1" pageScale="1" pageWidth="850" pageHeight="1100" math="0" shadow="0">
      <root>
        <mxCell id="0" />
        <mxCell id="1" parent="0" />
        <mxCell id="mYR-mMCrhtEwNgGjoewz-1" value="" style="ellipse;fillColor=strokeColor;" vertex="1" parent="1">
          <mxGeometry x="40" y="675" width="14" height="14" as="geometry" />
        </mxCell>
        <mxCell id="mYR-mMCrhtEwNgGjoewz-2" value="Idle&#xa;Waiting for command" style="rounded=1;arcSize=20;strokeWidth=2" vertex="1" parent="1">
          <mxGeometry x="104" y="662" width="210" height="40" as="geometry" />
        </mxCell>
        <mxCell id="mYR-mMCrhtEwNgGjoewz-3" value="Settings&#xa;Toggle Loop&#xa;Toggle Song Loop" style="rounded=1;arcSize=20;strokeWidth=2" vertex="1" parent="1">
          <mxGeometry x="568" y="490" width="216" height="64" as="geometry" />
        </mxCell>
        <mxCell id="mYR-mMCrhtEwNgGjoewz-4" value="Editing Playlist&#xa;Add/Remove Songs&#xa;Modify Order" style="rounded=1;arcSize=20;strokeWidth=2" vertex="1" parent="1">
          <mxGeometry x="568" y="604" width="216" height="88" as="geometry" />
        </mxCell>
        <mxCell id="mYR-mMCrhtEwNgGjoewz-5" value="Empty Playlist&#xa;No songs available" style="rounded=1;arcSize=20;strokeWidth=2" vertex="1" parent="1">
          <mxGeometry x="965" y="595" width="216" height="64" as="geometry" />
        </mxCell>
        <mxCell id="mYR-mMCrhtEwNgGjoewz-6" value="Playing&#xa;currentClip active&#xa;isPlaying = true" style="rounded=1;arcSize=20;strokeWidth=2" vertex="1" parent="1">
          <mxGeometry x="568" y="787" width="216" height="64" as="geometry" />
        </mxCell>
        <mxCell id="mYR-mMCrhtEwNgGjoewz-7" value="Paused&#xa;currentClip stopped&#xa;isPlaying = false" style="rounded=1;arcSize=20;strokeWidth=2" vertex="1" parent="1">
          <mxGeometry x="965" y="813" width="216" height="64" as="geometry" />
        </mxCell>
        <mxCell id="mYR-mMCrhtEwNgGjoewz-8" value="" style="ellipse;shape=endState;fillColor=strokeColor;" vertex="1" parent="1">
          <mxGeometry x="1331" y="755" width="14" height="14" as="geometry" />
        </mxCell>
        <mxCell id="mYR-mMCrhtEwNgGjoewz-9" value="" style="whiteSpace=wrap;strokeWidth=2;" vertex="1" parent="1">
          <mxGeometry x="1073" y="931" as="geometry" />
        </mxCell>
        <mxCell id="mYR-mMCrhtEwNgGjoewz-10" value="" style="whiteSpace=wrap;strokeWidth=2;" vertex="1" parent="1">
          <mxGeometry x="1338" y="966" as="geometry" />
        </mxCell>
        <mxCell id="mYR-mMCrhtEwNgGjoewz-11" value="" style="curved=1;startArrow=none;;exitX=1;exitY=0.53;entryX=0;entryY=0.51;rounded=0;" edge="1" parent="1" source="mYR-mMCrhtEwNgGjoewz-1" target="mYR-mMCrhtEwNgGjoewz-2">
          <mxGeometry relative="1" as="geometry">
            <Array as="points" />
          </mxGeometry>
        </mxCell>
        <mxCell id="mYR-mMCrhtEwNgGjoewz-12" value="toggleLoop()/&#xa;toggleLoopSong()" style="curved=1;startArrow=none;;exitX=0.62;exitY=0.01;entryX=0;entryY=0.32;rounded=0;" edge="1" parent="1" source="mYR-mMCrhtEwNgGjoewz-2" target="mYR-mMCrhtEwNgGjoewz-3">
          <mxGeometry relative="1" as="geometry">
            <Array as="points">
              <mxPoint x="441" y="496" />
            </Array>
          </mxGeometry>
        </mxCell>
        <mxCell id="mYR-mMCrhtEwNgGjoewz-13" value="return" style="curved=1;startArrow=none;;exitX=0;exitY=0.8;entryX=0.69;entryY=0.01;rounded=0;" edge="1" parent="1" source="mYR-mMCrhtEwNgGjoewz-3" target="mYR-mMCrhtEwNgGjoewz-2">
          <mxGeometry relative="1" as="geometry">
            <Array as="points">
              <mxPoint x="441" y="564" />
            </Array>
          </mxGeometry>
        </mxCell>
        <mxCell id="mYR-mMCrhtEwNgGjoewz-14" value="add/remove/move" style="curved=1;startArrow=none;;exitX=0.79;exitY=0.01;entryX=0;entryY=0.29;rounded=0;" edge="1" parent="1" source="mYR-mMCrhtEwNgGjoewz-2" target="mYR-mMCrhtEwNgGjoewz-4">
          <mxGeometry relative="1" as="geometry">
            <Array as="points">
              <mxPoint x="441" y="607" />
            </Array>
          </mxGeometry>
        </mxCell>
        <mxCell id="mYR-mMCrhtEwNgGjoewz-15" value="return" style="curved=1;startArrow=none;;exitX=0;exitY=0.63;entryX=1;entryY=0.39;rounded=0;" edge="1" parent="1" source="mYR-mMCrhtEwNgGjoewz-4" target="mYR-mMCrhtEwNgGjoewz-2">
          <mxGeometry relative="1" as="geometry">
            <Array as="points">
              <mxPoint x="441" y="672" />
            </Array>
          </mxGeometry>
        </mxCell>
        <mxCell id="mYR-mMCrhtEwNgGjoewz-16" value="clearPlaylist()" style="curved=1;startArrow=none;;exitX=1;exitY=0.24;entryX=0;entryY=0.31;rounded=0;" edge="1" parent="1" source="mYR-mMCrhtEwNgGjoewz-4" target="mYR-mMCrhtEwNgGjoewz-5">
          <mxGeometry relative="1" as="geometry">
            <Array as="points">
              <mxPoint x="875" y="605" />
            </Array>
          </mxGeometry>
        </mxCell>
        <mxCell id="mYR-mMCrhtEwNgGjoewz-17" value="addSong()" style="curved=1;startArrow=none;;exitX=0;exitY=0.68;entryX=1;entryY=0.5;rounded=0;" edge="1" parent="1" source="mYR-mMCrhtEwNgGjoewz-5" target="mYR-mMCrhtEwNgGjoewz-4">
          <mxGeometry relative="1" as="geometry">
            <Array as="points">
              <mxPoint x="875" y="648" />
            </Array>
          </mxGeometry>
        </mxCell>
        <mxCell id="mYR-mMCrhtEwNgGjoewz-18" value="play()" style="curved=1;startArrow=none;;exitX=0.73;exitY=1.01;entryX=0;entryY=0.22;rounded=0;" edge="1" parent="1" source="mYR-mMCrhtEwNgGjoewz-2" target="mYR-mMCrhtEwNgGjoewz-6">
          <mxGeometry relative="1" as="geometry">
            <Array as="points">
              <mxPoint x="441" y="780" />
            </Array>
          </mxGeometry>
        </mxCell>
        <mxCell id="mYR-mMCrhtEwNgGjoewz-19" value="pausePlayback()" style="curved=1;startArrow=none;;exitX=1;exitY=0.3;entryX=0;entryY=0.08;rounded=0;" edge="1" parent="1" source="mYR-mMCrhtEwNgGjoewz-6" target="mYR-mMCrhtEwNgGjoewz-7">
          <mxGeometry relative="1" as="geometry">
            <Array as="points">
              <mxPoint x="875" y="796" />
            </Array>
          </mxGeometry>
        </mxCell>
        <mxCell id="mYR-mMCrhtEwNgGjoewz-20" value="resumePlayback()" style="curved=1;startArrow=none;;exitX=0;exitY=0.47;entryX=1;entryY=0.69;rounded=0;" edge="1" parent="1" source="mYR-mMCrhtEwNgGjoewz-7" target="mYR-mMCrhtEwNgGjoewz-6">
          <mxGeometry relative="1" as="geometry">
            <Array as="points">
              <mxPoint x="875" y="841" />
            </Array>
          </mxGeometry>
        </mxCell>
        <mxCell id="mYR-mMCrhtEwNgGjoewz-21" value="" style="curved=1;startArrow=none;endArrow=none;exitX=0.76;exitY=1;entryX=Infinity;entryY=-Infinity;rounded=0;" edge="1" parent="1" source="mYR-mMCrhtEwNgGjoewz-6" target="mYR-mMCrhtEwNgGjoewz-9">
          <mxGeometry relative="1" as="geometry">
            <Array as="points">
              <mxPoint x="875" y="931" />
            </Array>
          </mxGeometry>
        </mxCell>
        <mxCell id="mYR-mMCrhtEwNgGjoewz-22" value="next()/prev()" style="curved=1;startArrow=none;endArrow=none;exitX=Infinity;exitY=-Infinity;entryX=-Infinity;entryY=Infinity;rounded=0;" edge="1" parent="1" source="mYR-mMCrhtEwNgGjoewz-9" target="mYR-mMCrhtEwNgGjoewz-10">
          <mxGeometry relative="1" as="geometry">
            <Array as="points">
              <mxPoint x="1256" y="931" />
            </Array>
          </mxGeometry>
        </mxCell>
        <mxCell id="mYR-mMCrhtEwNgGjoewz-23" value="" style="curved=1;startArrow=none;;exitX=-Infinity;exitY=Infinity;entryX=0.7;entryY=1;rounded=0;" edge="1" parent="1" source="mYR-mMCrhtEwNgGjoewz-10" target="mYR-mMCrhtEwNgGjoewz-6">
          <mxGeometry relative="1" as="geometry">
            <Array as="points">
              <mxPoint x="875" y="966" />
            </Array>
          </mxGeometry>
        </mxCell>
        <mxCell id="mYR-mMCrhtEwNgGjoewz-24" value="stopPlayback()" style="curved=1;startArrow=none;;exitX=0;exitY=0.77;entryX=0.63;entryY=1.01;rounded=0;" edge="1" parent="1" source="mYR-mMCrhtEwNgGjoewz-6" target="mYR-mMCrhtEwNgGjoewz-2">
          <mxGeometry relative="1" as="geometry">
            <Array as="points">
              <mxPoint x="441" y="856" />
            </Array>
          </mxGeometry>
        </mxCell>
        <mxCell id="mYR-mMCrhtEwNgGjoewz-25" value="stopPlayback()" style="curved=1;startArrow=none;;exitX=0.05;exitY=1.01;entryX=0.6;entryY=1.01;rounded=0;" edge="1" parent="1" source="mYR-mMCrhtEwNgGjoewz-7" target="mYR-mMCrhtEwNgGjoewz-2">
          <mxGeometry relative="1" as="geometry">
            <Array as="points">
              <mxPoint x="875" y="911" />
              <mxPoint x="441" y="911" />
            </Array>
          </mxGeometry>
        </mxCell>
        <mxCell id="mYR-mMCrhtEwNgGjoewz-26" value="quit" style="curved=1;startArrow=none;;exitX=0.99;exitY=1.01;entryX=-0.02;entryY=0.3;rounded=0;" edge="1" parent="1" source="mYR-mMCrhtEwNgGjoewz-2" target="mYR-mMCrhtEwNgGjoewz-8">
          <mxGeometry relative="1" as="geometry">
            <Array as="points">
              <mxPoint x="441" y="727" />
              <mxPoint x="1256" y="727" />
            </Array>
          </mxGeometry>
        </mxCell>
        <mxCell id="mYR-mMCrhtEwNgGjoewz-27" value="quit" style="curved=1;startArrow=none;;exitX=0.87;exitY=1;entryX=-0.02;entryY=0.49;rounded=0;" edge="1" parent="1" source="mYR-mMCrhtEwNgGjoewz-4" target="mYR-mMCrhtEwNgGjoewz-8">
          <mxGeometry relative="1" as="geometry">
            <Array as="points">
              <mxPoint x="875" y="759" />
              <mxPoint x="1256" y="759" />
            </Array>
          </mxGeometry>
        </mxCell>
        <mxCell id="mYR-mMCrhtEwNgGjoewz-28" value="quit" style="curved=1;startArrow=none;;exitX=1;exitY=0.51;entryX=-0.01;entryY=1.01;rounded=0;" edge="1" parent="1" source="mYR-mMCrhtEwNgGjoewz-7" target="mYR-mMCrhtEwNgGjoewz-8">
          <mxGeometry relative="1" as="geometry">
            <Array as="points">
              <mxPoint x="1256" y="845" />
            </Array>
          </mxGeometry>
        </mxCell>
      </root>
    </mxGraphModel>
  </diagram>
</mxfile>
